<?xml version="1.0" encoding="UTF-8" standalone="no"?>
<!-- Created with Inkscape (http://www.inkscape.org/) -->

<svg
   xmlns:osb="http://www.openswatchbook.org/uri/2009/osb"
   xmlns:dc="http://purl.org/dc/elements/1.1/"
   xmlns:cc="http://creativecommons.org/ns#"
   xmlns:rdf="http://www.w3.org/1999/02/22-rdf-syntax-ns#"
   xmlns:svg="http://www.w3.org/2000/svg"
   xmlns="http://www.w3.org/2000/svg"
   xmlns:sodipodi="http://sodipodi.sourceforge.net/DTD/sodipodi-0.dtd"
   xmlns:inkscape="http://www.inkscape.org/namespaces/inkscape"
   width="900mm"
   height="900mm"
   viewBox="0 0 900 900"
   version="1.1"
   id="svg6047"
   inkscape:version="0.92.2 (5c3e80d, 2017-08-06)"
   sodipodi:docname="grid.svg"
   inkscape:export-filename="C:\Users\Adhir\Documents\Corona Projects\XO\assets\grid.png"
   inkscape:export-xdpi="25.400002"
   inkscape:export-ydpi="25.400002">
  <defs
     id="defs6041">
    <linearGradient
       id="linearGradient6628"
       osb:paint="solid">
      <stop
         style="stop-color:#000000;stop-opacity:1;"
         offset="0"
         id="stop6626" />
    </linearGradient>
    <linearGradient
       id="linearGradient6622"
       osb:paint="solid">
      <stop
         style="stop-color:#000000;stop-opacity:1;"
         offset="0"
         id="stop6620" />
    </linearGradient>
    <filter
       inkscape:collect="always"
       style="color-interpolation-filters:sRGB"
       id="filter945"
       x="-0.023942446"
       width="1.0478849"
       y="-0.024057831"
       height="1.0481157">
      <feGaussianBlur
         inkscape:collect="always"
         stdDeviation="33.617876"
         id="feGaussianBlur947" />
    </filter>
  </defs>
  <sodipodi:namedview
     id="base"
     pagecolor="#ffffff"
     bordercolor="#666666"
     borderopacity="1.0"
     inkscape:pageopacity="0.0"
     inkscape:pageshadow="2"
     inkscape:zoom="0.087500002"
     inkscape:cx="1473.5446"
     inkscape:cy="1783.9916"
     inkscape:document-units="mm"
     inkscape:current-layer="layer1"
     showgrid="false"
     inkscape:pagecheckerboard="true"
     width="1000mm"
     inkscape:window-width="1366"
     inkscape:window-height="705"
     inkscape:window-x="-8"
     inkscape:window-y="-8"
     inkscape:window-maximized="1" />
  <metadata
     id="metadata6044">
    <rdf:RDF>
      <cc:Work
         rdf:about="">
        <dc:format>image/svg+xml</dc:format>
        <dc:type
           rdf:resource="http://purl.org/dc/dcmitype/StillImage" />
        <dc:title />
      </cc:Work>
    </rdf:RDF>
  </metadata>
  <g
     inkscape:label="Layer 1"
     inkscape:groupmode="layer"
     id="layer1"
     transform="translate(0,603)"
     style="opacity:0.98">
    <rect
       style="fill:none;fill-opacity:1;stroke-width:0.26458332;paint-order:fill markers stroke"
       id="rect6049"
       width="61.232143"
       height="82.398804"
       x="-67.620544"
       y="140.08043" />
    <rect
       style="fill:none;fill-opacity:1;stroke:#00ff00;stroke-width:11.78093147;stroke-miterlimit:4;stroke-dasharray:none;stroke-opacity:1;paint-order:fill markers stroke"
       id="rect6594"
       width="881.04602"
       height="879.15247"
       x="10.145789"
       y="-590.29602" />
    <rect
       style="fill:none;fill-opacity:1;stroke:#00ff00;stroke-width:6.52314138;stroke-miterlimit:4;stroke-dasharray:none;stroke-opacity:1;paint-order:fill markers stroke"
       id="rect6594-9-5-3"
       width="877.54077"
       height="270.61365"
       x="9.5349646"
       y="18.403025" />
    <rect
       style="fill:none;fill-opacity:1;stroke:#00ff00;stroke-width:6.75111914;stroke-miterlimit:4;stroke-dasharray:none;stroke-opacity:1;paint-order:fill markers stroke"
       id="rect6594-9-5-3-4"
       width="881.58905"
       height="288.52853"
       x="9.6489859"
       y="-285.72098" />
    <rect
       style="fill:none;fill-opacity:1;stroke:#00ff00;stroke-width:6.73497581;stroke-miterlimit:4;stroke-dasharray:none;stroke-opacity:1;paint-order:fill markers stroke"
       id="rect6594-9-5-3-4-8"
       width="877.32892"
       height="288.54468"
       x="9.9914541"
       y="-590.45038"
       inkscape:export-filename="C:\Users\Adhir\Documents\Corona Projects\XO\assets\grid.png"
       inkscape:export-xdpi="96"
       inkscape:export-ydpi="96" />
    <rect
       style="fill:none;fill-opacity:1;stroke:#00ff00;stroke-width:6.75117922;stroke-miterlimit:4;stroke-dasharray:none;stroke-opacity:1;paint-order:fill markers stroke"
       id="rect6594-9-5-3-4-8-8"
       width="291.66519"
       height="872.12372"
       x="11.063773"
       y="-589.37805" />
    <rect
       style="fill:none;fill-opacity:1;stroke:#00ff00;stroke-width:6.64698362;stroke-miterlimit:4;stroke-dasharray:none;stroke-opacity:1;paint-order:fill markers stroke"
       id="rect6594-9-5-3-4-8-8-7"
       width="282.698"
       height="872.22791"
       x="608.54596"
       y="-590.34814" />
    <path
       style="fill:#1a1a1a;fill-opacity:1;stroke:#342f2f;stroke-width:81.39761353;stroke-miterlimit:4;stroke-dasharray:none;stroke-opacity:1;paint-order:fill markers stroke;filter:url(#filter945)"
       d="M 16.846801,1708.6216 V 31.768417 H 1701.7812 3386.7156 V 1708.6216 3385.4748 H 1701.7812 16.846801 Z M 2287.6697,2856.1549 v -496.9951 h -565.6854 -565.6855 v 496.9951 496.995 h 565.6855 565.6854 z m -1155.6145,-8.0813 V 2359.1598 H 594.65404 57.252902 v 488.9138 488.9139 H 594.65404 1132.0552 Z m 2214.2543,0 v -488.9138 h -517.1981 -517.1981 v 488.9138 488.9139 h 517.1981 517.1981 z M 1132.0552,2322.7943 v -20.203 H 594.65404 57.252902 v 20.203 20.2031 H 594.65404 1132.0552 Z m 1155.6145,0 v -20.203 h -565.6854 -565.6855 v 20.203 20.2031 h 565.6855 565.6854 z m 1058.6398,0 v -20.203 h -517.1981 -517.1981 v 20.203 20.2031 h 517.1981 517.1981 z M 1132.0552,1744.9871 V 1211.6266 H 594.65404 57.252902 v 533.3605 533.3605 H 594.65404 1132.0552 Z m 1155.6145,0 v -533.3605 h -565.6854 -565.6855 v 533.3605 533.3605 h 565.6855 565.6854 z m 1058.6398,0 v -533.3605 h -517.1981 -517.1981 v 533.3605 533.3605 h 517.1981 517.1981 z M 1132.0552,1167.1798 v -20.203 H 594.65404 57.252902 v 20.203 20.2031 H 594.65404 1132.0552 Z m 1155.6145,0 v -20.203 h -565.6854 -565.6855 v 20.203 20.2031 h 565.6855 565.6854 z m 1058.6398,0 v -20.203 h -517.1981 -517.1981 v 20.203 20.2031 h 517.1981 517.1981 z M 1132.0552,597.45383 V 64.093298 H 594.65404 57.252902 V 597.45383 1130.8144 H 594.65404 1132.0552 Z m 1155.6145,0 V 64.093298 H 1721.9843 1156.2988 V 597.45383 1130.8144 h 565.6855 565.6854 z m 1058.6398,0 V 64.093298 H 2829.1114 2311.9133 V 597.45383 1130.8144 h 517.1981 517.1981 z"
       id="path847"
       inkscape:connector-curvature="0"
       transform="matrix(0.26458333,0,0,0.26458333,0,-603)" />
  </g>
</svg>
