<?xml version="1.0" encoding="UTF-8" standalone="no"?>
<!-- Created with Inkscape (http://www.inkscape.org/) -->

<svg
   xmlns:dc="http://purl.org/dc/elements/1.1/"
   xmlns:cc="http://creativecommons.org/ns#"
   xmlns:rdf="http://www.w3.org/1999/02/22-rdf-syntax-ns#"
   xmlns:svg="http://www.w3.org/2000/svg"
   xmlns="http://www.w3.org/2000/svg"
   xmlns:sodipodi="http://sodipodi.sourceforge.net/DTD/sodipodi-0.dtd"
   xmlns:inkscape="http://www.inkscape.org/namespaces/inkscape"
   width="300mm"
   height="300mm"
   viewBox="0 0 300 300"
   version="1.1"
   id="svg8"
   inkscape:version="0.92.2 (5c3e80d, 2017-08-06)"
   sodipodi:docname="O.svg"
   inkscape:export-filename="C:\Users\Adhir\Documents\Corona Projects\XO\assets\O.png"
   inkscape:export-xdpi="25.4"
   inkscape:export-ydpi="25.4">
  <defs
     id="defs2">
    <filter
       style="color-interpolation-filters:sRGB"
       inkscape:label="Light Eraser"
       id="filter3856">
      <feColorMatrix
         values="-4.66 5.69 5.69 0 -1.77 5.69 -4.66 5.69 0 -1.77 5.69 5.69 -4.66 0 -1.77 0 0 0 1 0 "
         id="feColorMatrix3854"
         result="fbSourceGraphic" />
      <feColorMatrix
         result="fbSourceGraphicAlpha"
         in="fbSourceGraphic"
         values="0 0 0 -1 0 0 0 0 -1 0 0 0 0 -1 0 0 0 0 1 0"
         id="feColorMatrix4749" />
      <feColorMatrix
         id="feColorMatrix4751"
         values="1 0 0 0 0 0 1 0 0 0 0 0 1 0 0 -21.25 -71.54 -7.21 50 0 "
         result="colormatrix"
         in="fbSourceGraphic" />
      <feComposite
         in2="colormatrix"
         id="feComposite4753"
         operator="arithmetic"
         k2="1"
         result="composite"
         k1="0"
         k3="0"
         k4="0" />
    </filter>
  </defs>
  <sodipodi:namedview
     id="base"
     pagecolor="#ffffff"
     bordercolor="#666666"
     borderopacity="1.0"
     inkscape:pageopacity="0.0"
     inkscape:pageshadow="2"
     inkscape:zoom="0.24748737"
     inkscape:cx="501.71979"
     inkscape:cy="757.25948"
     inkscape:document-units="mm"
     inkscape:current-layer="layer1"
     showgrid="false"
     inkscape:pagecheckerboard="true"
     inkscape:window-width="1366"
     inkscape:window-height="705"
     inkscape:window-x="-8"
     inkscape:window-y="-8"
     inkscape:window-maximized="1"
     inkscape:snap-smooth-nodes="true"
     showguides="false"
     fit-margin-top="0"
     fit-margin-left="0"
     fit-margin-right="0"
     fit-margin-bottom="0" />
  <metadata
     id="metadata5">
    <rdf:RDF>
      <cc:Work
         rdf:about="">
        <dc:format>image/svg+xml</dc:format>
        <dc:type
           rdf:resource="http://purl.org/dc/dcmitype/StillImage" />
        <dc:title></dc:title>
      </cc:Work>
    </rdf:RDF>
  </metadata>
  <g
     inkscape:label="Layer 1"
     inkscape:groupmode="layer"
     id="layer1"
     transform="translate(-2.3788877,1.3375747)">
    <path
       id="path3860"
       style="fill:none;fill-opacity:1;fill-rule:nonzero;stroke:none;stroke-width:1"
       d="m 3.5514261,21.617545 c -0.1902204,0.121694 -0.379734,0.244742 -0.5705078,0.365352 -0.1979007,0.125115 -0.4003652,0.242441 -0.6020306,0.361218 0.086725,0.289674 0.1478055,0.604759 0.1855184,0.939478 0.3105621,-0.531189 0.6390693,-1.089661 0.98702,-1.666048 z"
       inkscape:connector-curvature="0" />
    <path
       style="fill:#0000ff;stroke-width:0.75595242"
       d="m 135.22999,204.64224 c -6.67018,-1.4356 -10.46139,-4.61101 -16.58881,-13.89428 -4.20067,-6.36419 -4.69706,-7.67771 -10.64054,-28.1563 -2.35709,-8.12146 -3.12163,-14.68939 -3.21188,-27.59226 -0.0936,-13.3759 -0.0609,-13.67218 1.92472,-17.43438 1.11095,-2.10499 2.5413,-4.25997 3.17856,-4.78885 0.63727,-0.52889 2.00892,-2.41246 3.04813,-4.18573 2.34397,-3.99969 9.68673,-10.877864 14.55356,-13.632732 6.91674,-3.915227 15.51225,-5.967526 25.20283,-6.017529 8.31395,-0.0429 8.8915,0.05853 13.23022,2.323491 5.43678,2.838193 11.48063,8.651237 13.73164,13.20726 5.08149,10.28486 10.46131,28.30929 11.97032,40.10505 0.48724,3.80876 1.18324,4.69771 4.2504,5.42862 1.98275,0.47249 3.03676,2.25623 4.04809,6.85072 0.5052,2.2951 -0.6551,13.73643 -1.92335,18.96551 -0.40336,1.6631 -1.25799,5.40506 -1.89917,8.31548 -0.64118,2.91041 -1.48549,5.61483 -1.87625,6.00982 -0.39075,0.39498 -0.71047,1.19402 -0.71047,1.77563 0,1.00052 -1.57113,5.01581 -3.08736,7.8903 -0.38082,0.72196 -0.6924,1.99763 -0.6924,2.83482 0,1.56538 -1.09203,2.05717 -1.84884,0.83262 -0.23439,-0.37925 0.12601,-3.18572 0.80089,-6.23661 0.67488,-3.05088 1.48806,-6.90777 1.80706,-8.57087 0.319,-1.66309 1.09372,-5.57515 1.72158,-8.69345 1.72149,-8.54974 2.40425,-19.85757 1.32118,-21.8813 -0.86005,-1.60703 -0.94252,-1.61942 -1.94795,-0.29273 -0.57743,0.76194 -1.0607,1.87325 -1.07393,2.46958 -0.0132,0.59634 -0.68442,2.46732 -1.49154,4.15774 -0.80712,1.69042 -2.18544,4.91668 -3.06292,7.16947 -0.87749,2.25279 -2.20283,4.97421 -2.94521,6.04762 -0.74237,1.0734 -1.56454,2.54696 -1.82704,3.27456 -0.26249,0.7276 -0.82811,1.32292 -1.25694,1.32292 -0.42882,0 -0.77967,0.51139 -0.77967,1.13643 0,2.57491 -12.3168,13.41403 -19.01914,16.73736 -6.14361,3.0463 -6.7738,3.26331 -13.10884,4.51413 -6.13201,1.21074 -6.20791,1.21079 -11.79693,0.008 z m 18.22252,-8.16869 c 1.45521,-0.44306 3.23654,-1.10399 3.9585,-1.46874 0.72196,-0.36473 1.77419,-0.66315 2.33829,-0.66315 1.93735,0 11.47099,-7.35724 15.29508,-11.80343 7.69909,-8.95155 10.75947,-15.11342 12.00534,-24.17196 0.68593,-4.98735 -1.52793,-18.63967 -4.52469,-27.90258 -1.91432,-5.91712 -5.60356,-15.48932 -7.05537,-18.30604 -3.20111,-6.21062 -9.56619,-11.9582 -15.96953,-14.420272 -3.17208,-1.219657 -15.36384,-1.357902 -18.38702,-0.208491 -1.16717,0.443754 -2.91664,0.806825 -3.88772,0.806825 -1.86801,0 -7.72882,2.527978 -11.12455,4.798418 -1.7986,1.20258 -6.99249,7.50135 -12.80228,15.52568 -4.30048,5.93971 -5.51854,16.41547 -3.30624,28.43483 1.58361,8.60374 1.99667,10.11634 5.96811,21.85474 3.47369,10.26725 7.4148,17.68103 11.94999,22.4797 2.60761,2.75909 7.49311,5.74137 10.12243,6.17909 3.05502,0.50858 12.24329,-0.16751 15.41966,-1.13462 z"
       id="path4755"
       inkscape:connector-curvature="0" />
    <path
       style="fill:#0000ff;stroke-width:0.75595242"
       d="m 146.36525,298.12741 c -0.29462,-0.29462 -5.53904,-0.77891 -11.65426,-1.0762 -16.09649,-0.7825 -19.91804,-1.51167 -28.12752,-5.36678 C 98.490764,287.88417 81.241167,275.2991 72.794894,267.03281 61.321029,255.8034 46.678286,236.31169 39.534547,222.75823 c -2.829491,-5.36825 -6.583965,-12.47237 -8.343272,-15.78691 -2.929679,-5.51954 -5.001601,-11.3178 -8.024684,-22.45704 -0.620604,-2.28675 -1.803327,-6.02872 -2.628275,-8.31547 -2.990631,-8.29003 -4.712704,-19.15929 -4.618746,-29.15226 0.0669,-7.11501 0.324977,-9.40131 1.061221,-9.40131 1.562893,0 2.544944,3.66785 2.934835,10.96131 0.430984,8.06215 1.594341,15.80866 3.235537,21.54464 8.064442,28.18521 9.408809,31.90572 14.750439,40.82143 0.87185,1.45521 3.640953,6.55788 6.153558,11.33928 4.600625,8.75482 5.58011,10.38047 10.308134,17.10834 2.145004,3.05229 10.612599,13.09905 17.068387,20.25155 0.831549,0.92129 3.893156,3.51903 6.803573,5.77275 2.910417,2.25369 5.790782,4.57623 6.400813,5.16117 1.232075,1.18139 9.911543,7.03924 14.540338,9.81342 1.641545,0.98383 6.786155,2.96114 11.432455,4.39402 7.6019,2.34434 9.62382,2.64784 20.19199,3.03091 l 11.74417,0.42571 7.9106,-3.78669 c 4.35082,-2.08267 8.93112,-4.00587 10.17844,-4.27379 1.24732,-0.26791 4.98929,-1.81239 8.31548,-3.4322 10.49787,-5.1123 12.72147,-5.89563 18.03203,-6.35235 l 5.18085,-0.44556 -1.08725,1.67976 c -0.71009,1.09704 -3.03178,2.28939 -6.69275,3.43717 -6.29252,1.97284 -8.22147,2.80509 -19.82901,8.55539 -15.12025,7.49048 -14.47083,6.99796 -12.20926,9.25951 0.89503,0.89504 1.61431,0.98658 3.15349,0.4014 1.09669,-0.41698 4.21414,-0.86135 6.92766,-0.9875 2.76914,-0.12875 5.05729,-0.60026 5.21544,-1.07471 0.78556,-2.35667 10.77848,-6.19424 16.12962,-6.19424 2.19874,0 2.23498,0.0555 1.09704,1.6801 -1.53696,2.19432 -1.48935,3.04176 0.14613,2.6008 0.7276,-0.19616 4.04434,-0.95459 7.37053,-1.68539 5.2772,-1.15946 7.29956,-2.14847 15.875,-7.76349 5.40506,-3.53912 10.33765,-6.88012 10.96131,-7.42447 0.62366,-0.54433 3.26005,-2.70862 5.85863,-4.80952 2.59859,-2.10092 4.7247,-4.3177 4.7247,-4.92619 0,-1.15594 -2.65721,-1.55515 -3.31092,-0.49743 -0.207,0.33492 -2.35318,1.59502 -4.76932,2.8002 -2.41613,1.2052 -6.09386,3.41434 -8.17273,4.90919 -8.25743,5.93767 -13.98516,8.33596 -13.9851,5.85578 4e-5,-1.58041 4.94999,-5.01338 11.9056,-8.25696 6.91631,-3.22527 8.11248,-4.01209 15.1384,-9.95759 2.38041,-2.01436 5.34854,-4.19047 6.59586,-4.83581 1.24732,-0.64535 3.5653,-2.28021 5.15107,-3.63303 1.58576,-1.35281 4.1371,-2.6864 5.66964,-2.96353 1.53253,-0.27712 4.04341,-1.32388 5.57971,-2.32614 2.90004,-1.89193 11.09254,-12.18505 13.45977,-16.91096 4.28459,-8.55366 8.52024,-22.77577 10.2228,-34.32526 0.60201,-4.08378 1.31184,-7.77658 1.57737,-8.20623 0.26554,-0.42965 0.92136,-3.55177 1.45741,-6.93805 0.53604,-3.38628 1.51487,-8.60394 2.17513,-11.59481 1.34356,-6.08578 0.84773,-10.4172 -1.97215,-17.22879 -1.29889,-3.13755 -1.59194,-5.667 -1.75172,-15.11905 -0.10555,-6.24312 -0.57206,-12.5395 -1.03672,-13.99196 -0.46463,-1.45247 -0.84481,-5.05862 -0.84481,-8.01368 0,-2.95506 -0.30521,-6.35909 -0.67824,-7.56452 -0.37304,-1.20542 -1.09228,-4.74301 -1.59831,-7.861315 -0.82706,-5.096526 -3.15699,-12.057441 -7.71738,-23.056545 -0.86193,-2.078871 -1.98968,-4.800299 -2.5061,-6.047621 -0.51641,-1.24732 -1.16825,-3.118303 -1.44852,-4.157737 -0.28026,-1.039434 -0.82855,-2.570239 -1.21842,-3.401787 -0.38986,-0.831546 -1.85929,-4.469318 -3.26541,-8.083937 -1.40612,-3.614618 -3.75896,-8.717295 -5.22854,-11.339284 -2.99555,-5.344563 -9.87375,-13.298006 -12.9016,-14.918468 -2.36367,-1.264997 -2.62816,-3.077953 -0.44903,-3.077953 5.83072,0 16.68249,11.488322 21.4387,22.696259 0.78984,1.861254 2.06551,4.76717 2.83482,6.457593 0.76931,1.69042 1.39874,3.38474 1.39874,3.76515 0,0.690973 2.36139,7.019584 4.21792,11.304212 0.54047,1.247323 1.68352,4.223885 2.54012,6.614583 3.97017,11.080499 4.75185,13.191019 5.68376,15.346339 2.55389,5.906418 6.69642,35.431111 6.94193,49.476581 0.10456,5.98201 0.62473,11.11374 1.41753,13.98511 2.34598,8.49652 2.4702,9.43432 1.82624,13.788 -0.85194,5.75961 -1.92699,11.8056 -2.92508,16.4501 -0.44675,2.07887 -1.14041,5.61336 -1.54149,7.85441 -2.56746,14.3458 -7.38756,29.49503 -12.65402,39.77059 -4.81527,9.39521 -16.76515,22.62347 -33.47714,37.05848 -3.94985,3.41169 -7.86191,6.96547 -8.69346,7.89728 -0.83154,0.93181 -3.89315,2.85385 -6.80357,4.27125 -6.07615,2.9591 -13.69412,7.44161 -18.28556,10.75949 -3.90531,2.82207 -7.67403,4.12874 -17.712,6.14103 -4.29381,0.8608 -8.13927,1.89741 -8.54546,2.3036 -0.84337,0.84336 -26.34729,1.03372 -27.17817,0.20283 z"
       id="path4757"
       inkscape:connector-curvature="0" />
    <path
       style="fill:#000080;stroke-width:0.75595242"
       d="m 14.629846,131.9735 c -0.297609,-0.77556 0.493291,-4.27899 1.87412,-8.30172 1.313965,-3.82794 2.389027,-7.50171 2.389027,-8.16393 0,-0.66222 2.211161,-5.51102 4.91369,-10.77511 2.70253,-5.264098 4.913691,-9.946812 4.913691,-10.406039 0,-1.099503 6.169042,-13.753441 9.180874,-18.831795 1.30329,-2.197524 2.96223,-5.016037 3.686532,-6.26336 7.151558,-12.315721 11.720703,-18.162405 23.040109,-29.482142 4.157615,-4.157739 9.133337,-9.450284 11.057157,-11.761216 2.581296,-3.100699 4.71288,-4.746961 8.134721,-6.282592 4.716327,-2.116562 16.155013,-5.723987 18.241493,-5.75283 0.63109,-0.0087 2.37068,-0.847081 3.86577,-1.863017 2.73147,-1.85608 6.7869,-3.369713 17.28739,-6.4522612 3.1183,-0.9154173 7.48585,-2.3140548 9.70566,-3.1080842 3.12594,-1.1181508 6.09254,-1.4436894 13.15622,-1.4436894 8.18712,0 9.53372,-0.1956191 13.1619,-1.9120268 2.22293,-1.05161482 4.0417,-2.2422398 4.0417,-2.6458333 0,-0.4419546 4.52764,-0.7338065 11.3839,-0.7338065 6.26114,0 11.20442,0.2903973 10.98506,0.6453274 -0.46509,0.75253856 7.89787,4.176817 13.91675,5.6983172 7.8908,1.9947014 17.63396,6.4113228 20.96841,9.5050918 1.76194,1.634764 2.95206,3.127714 2.64472,3.317668 -0.30736,0.189954 -3.41032,-0.804957 -6.89549,-2.210913 C 196.44093,6.7449107 184.61831,4.2343998 169.3341,4.779972 162.39292,5.0277392 158.03261,5.5522 155.72037,6.4174398 c -1.87098,0.700123 -6.49533,1.5614158 -10.27634,1.9139853 -3.781,0.3525692 -7.95949,1.2020806 -9.28553,1.8878029 -2.31912,1.199261 -3.2275,1.315818 -9.24735,1.186553 -2.72625,-0.05854 -7.44204,1.285916 -13.14614,3.747922 -3.35397,1.447644 -6.44462,2.419344 -12.09523,3.802741 -2.078871,0.508954 -5.514562,1.738658 -7.634872,2.732677 -2.12031,0.994019 -4.126169,1.807307 -4.457472,1.807307 -2.290133,0 -14.05286,9.653818 -23.835206,19.561853 -9.529149,9.651581 -19.040671,22.145487 -21.217014,27.869699 -0.380527,1.000861 -1.66048,3.239762 -2.84434,4.975344 -2.102839,3.082835 -9.180741,17.128038 -9.180741,18.218023 0,0.302101 -1.726382,4.010303 -3.836405,8.240453 -2.110023,4.23015 -5.028025,11.43314 -6.484449,16.00665 -3.575883,11.22911 -3.959963,12.16443 -5.60746,13.6554 -1.347353,1.21933 -1.455831,1.21652 -1.941975,-0.0504 z"
       id="path4759"
       inkscape:connector-curvature="0" />
    <path
       style="fill:#000080;stroke-width:0.75595242"
       d="m 156.47633,210.72279 c 0,-0.55318 1.54614,-2.11614 3.43586,-3.47324 5.50642,-3.95441 12.24862,-10.51295 14.70999,-14.30929 1.25246,-1.93176 3.20992,-4.13976 4.3499,-4.90667 1.13998,-0.76691 2.92314,-2.55174 3.96258,-3.9663 1.03943,-1.41455 2.65528,-3.09113 3.59077,-3.72572 6.88169,-4.66821 -7.36477,14.47898 -16.92025,22.74076 -2.85525,2.46868 -5.36144,4.70082 -5.56933,4.96033 -0.74274,0.92716 -5.68721,3.68031 -6.61459,3.68308 -0.51971,0.002 -0.94493,-0.44977 -0.94493,-1.00295 z"
       id="path4761"
       inkscape:connector-curvature="0" />
    <path
       style="fill:#000080;stroke-width:0.75595242"
       d="m 162.62152,219.02769 c -0.65803,-0.79287 0.0281,-1.86408 3.12024,-4.87177 8.13887,-7.91648 13.59942,-12.25473 15.42499,-12.25473 1.51447,0 1.69938,0.22745 1.09815,1.35084 -1.625,3.03635 -16.60235,16.79201 -18.28336,16.79201 -0.28408,0 -0.89609,-0.45735 -1.36002,-1.01635 z"
       id="path4763"
       inkscape:connector-curvature="0" />
    <path
       style="fill:#000080;stroke-width:0.75595242"
       d="m 130.31777,283.99082 c -0.79164,-2.06298 0.92039,-3.16357 8.96649,-5.76413 4.25846,-1.37636 10.63418,-4.01656 14.16825,-5.86711 3.53408,-1.85055 8.80333,-4.57808 11.70944,-6.0612 2.90612,-1.4831 10.56014,-5.90613 17.00893,-9.82893 6.4488,-3.9228 12.63862,-7.67874 13.75515,-8.34654 2.34387,-1.40185 3.58597,-0.73184 2.05751,1.10985 -1.12515,1.35572 -5.60415,4.35582 -9.60078,6.43074 -3.39372,1.76192 -7.71596,5.12091 -7.71596,5.9964 0,1.74425 4.55937,0.39831 11.99483,-3.54094 11.25209,-5.96127 10.80701,-5.70086 14.11734,-8.25981 1.6456,-1.27208 4.44262,-2.7739 6.21561,-3.33737 1.773,-0.56347 3.60059,-1.4787 4.06132,-2.03385 0.46073,-0.55515 1.33608,-1.00936 1.94522,-1.00936 0.60913,0 3.26054,-1.20404 5.89201,-2.67564 4.83833,-2.70575 7.02573,-2.59721 3.94234,0.19561 -0.92268,0.83572 -3.37849,2.48224 -5.45736,3.65893 -2.07887,1.17669 -4.8003,2.89798 -6.04762,3.82508 -1.24732,0.9271 -4.13884,2.67505 -6.4256,3.88433 -11.88733,6.28625 -17.80299,9.5389 -18.14285,9.97563 -1.32644,1.70445 -5.41644,3.65943 -8.31548,3.97468 -1.87098,0.20346 -5.30559,1.27124 -7.63247,2.37281 -2.32687,1.10156 -5.02415,2.00287 -5.99394,2.00287 -1.87716,0 -3.1524,0.36226 -12.07597,3.43074 -3.1183,1.07225 -7.0202,2.28833 -8.67089,2.70238 -1.65069,0.41407 -4.19574,1.49971 -5.65569,2.41252 -1.45994,0.91284 -4.5317,2.37712 -6.82613,3.25398 -2.29443,0.87688 -4.76414,1.84766 -5.48824,2.15731 -0.88938,0.38033 -1.46869,0.16652 -1.78546,-0.65898 z"
       id="path4765"
       inkscape:connector-curvature="0" />
    <path
       style="fill:#0000ff;stroke-width:0.75595242"
       d="m 15.113231,130.55666 c 0,-3.55175 4.585409,-16.90448 8.988081,-26.17333 2.468639,-5.19717 6.226649,-13.150878 8.351133,-17.674899 4.287901,-9.130942 12.957987,-24.03545 17.798013,-30.596069 1.731655,-2.347246 9.199551,-10.630014 16.595322,-18.40615 12.787641,-13.445307 13.713947,-14.249617 18.894936,-16.406469 2.99644,-1.247422 8.127566,-3.003147 11.402501,-3.901613 3.274943,-0.898465 7.844313,-2.583143 10.154183,-3.74373 2.30987,-1.160586 9.8127,-3.8852656 16.67297,-6.054842 11.61769,-3.6741216 13.1732,-3.9790328 22.67857,-4.4454596 9.3964,-0.4610796 10.52998,-0.6783861 14.3006,-2.74142459 3.92567,-2.14787111 4.48911,-2.24065001 13.60715,-2.24065001 8.73265,0 9.85251,0.1637819 13.66964,1.99919603 2.28675,1.09955777 7.72961,3.09536377 12.09523,4.43512437 4.36563,1.33976 10.18136,3.5646897 12.92385,4.9442867 4.88328,2.4565011 10.13042,6.2625631 9.50121,6.8917751 -0.17456,0.174555 -4.86638,-1.363367 -10.42628,-3.417604 -13.1137,-4.8451692 -16.98937,-5.9684471 -25.22795,-7.3117663 -7.44212,-1.2134543 -21.46346,-1.4059204 -26.8363,-0.3683725 -1.87099,0.3613052 -7.9942,1.4983431 -13.60715,2.5267504 -5.61294,1.0284082 -11.16299,2.2433194 -12.33343,2.6998044 -1.17045,0.456485 -4.06196,0.834523 -6.4256,0.840085 -2.87571,0.0068 -6.42338,0.77761 -10.72311,2.329933 -3.53408,1.275901 -9.14702,3.146552 -12.47321,4.157002 C 87.782611,23.035556 82.527769,26.388295 66.891167,42.017262 56.238587,52.66464 50.239805,60.331384 43.992538,71.282861 35.913023,85.446271 24.797688,109.4649 21.152756,120.63631 c -2.779752,8.5197 -4.226898,11.71726 -5.302986,11.71726 -0.405097,0 -0.736539,-0.80861 -0.736539,-1.79691 z"
       id="path4767"
       inkscape:connector-curvature="0"
       inkscape:export-filename="C:\Users\Adhir\Documents\Corona Projects\XO\assets\O.png"
       inkscape:export-xdpi="56.788742"
       inkscape:export-ydpi="56.788742" />
    <path
       style="fill:#0000ff;stroke:#000000;stroke-width:0.26458332px;stroke-linecap:butt;stroke-linejoin:miter;stroke-opacity:1"
       d="m 16.980791,137.64524 c 0.295263,-1.1831 -0.917588,-0.73416 -1.238427,-1.21542 -0.04506,-0.0676 0,-1.70876 0,-1.87089 0,-1.42543 0,-2.85087 0,-4.27631 0,-0.53453 0,-1.06908 0,-1.60361 0,-0.26345 0,-0.79799 0,-0.53454 0,1.19462 0.05661,0.36559 -0.629133,2.41219"
       id="path4769"
       inkscape:connector-curvature="0" />
    <path
       style="fill:none;stroke:#000000;stroke-width:0.26458332px;stroke-linecap:butt;stroke-linejoin:miter;stroke-opacity:1"
       d="m 236.33047,25.062476 c 0.86065,-0.02801 1.7287,0.03205 2.58195,-0.08404 0.0883,-0.01201 0.063,-0.204273 0,-0.26727 -1.49888,-1.498879 -0.30782,-0.280785 -1.06908,-0.534539 -0.18899,-0.063 -0.35636,-0.178179 -0.53454,-0.267269 -0.17818,-0.08909 -0.39368,-0.126406 -0.53454,-0.26727 -0.14086,-0.140863 -0.0965,-0.432045 -0.26727,-0.534539 -0.31498,-0.188988 -0.70888,-0.19523 -1.06908,-0.267269 -0.0874,-0.01747 -0.196,0.05345 -0.26727,0 -0.30238,-0.226786 -0.48731,-0.592145 -0.80181,-0.801809 -0.23441,-0.156274 -0.54982,-0.141277 -0.8018,-0.267269 -0.28731,-0.143653 -0.51451,-0.390886 -0.80181,-0.534539 -0.25199,-0.125992 -0.54983,-0.141278 -0.80181,-0.26727 -1.26639,-0.633196 1.80575,0.156468 -1.06908,-0.801808 -0.25355,-0.08452 -0.54252,0.06482 -0.80181,0 -0.12223,-0.03056 -0.16244,-0.197382 -0.26727,-0.26727 -0.16575,-0.110502 -0.35636,-0.17818 -0.53454,-0.26727 -0.17817,-0.08909 -0.34957,-0.193284 -0.53453,-0.267269 -0.38502,-0.154005 -0.97818,-0.265913 -1.33635,-0.534539 -0.20159,-0.151191 -0.30916,-0.421848 -0.53454,-0.534539 -0.15937,-0.07969 -0.36168,0.04322 -0.53454,0 -1.29063,-0.322657 0.0132,-0.127012 -0.80181,-0.534539 -0.15937,-0.07968 -0.40855,0.125992 -0.53454,0 -0.063,-0.063 0.063,-0.204274 0,-0.26727 -0.063,-0.063 -0.18758,0.03984 -0.26727,0 -0.11269,-0.05635 -0.15458,-0.210924 -0.26727,-0.267269 -0.15937,-0.07969 -0.40854,0.125992 -0.53454,0 -0.063,-0.063 0.063,-0.204274 0,-0.26727 -0.063,-0.063 -0.20427,0.063 -0.26727,0 -0.063,-0.063 0.063,-0.204273 0,-0.267269 -0.12599,-0.125992 -0.37517,0.07968 -0.53454,0 -0.11269,-0.05635 -0.15457,-0.210925 -0.26726,-0.26727 -0.0797,-0.03984 -0.18759,0.03984 -0.26727,0 -0.11269,-0.05635 -0.15458,-0.210924 -0.26728,-0.267269 -0.21381,-0.106908 -0.58799,0.106907 -0.8018,0 -0.0797,-0.03984 0.063,-0.204274 0,-0.26727 -0.063,-0.063 -0.34831,-0.03701 -0.26727,0 0.47714,0.217923 0.98266,0.367426 1.47399,0.551139"
       id="path4771"
       inkscape:connector-curvature="0" />
    <path
       style="fill:#ffff00;stroke-width:2.85714293"
       d="m 565.29566,1110.3687 c -1.04763,-1.0476 -1.90477,-2.9691 -1.90477,-4.2699 0,-3.7428 93.23243,-49.1934 119.23597,-58.1272 21.01303,-7.2193 38.56608,-18.8485 34.53471,-22.8799 -0.81948,-0.8194 -10.86065,-0.1608 -22.31377,1.4634 -14.3842,2.0401 -31.52426,7.7193 -55.42606,18.365 -19.03125,8.4764 -43.60228,18.9231 -54.60228,23.2149 -11,4.2918 -27.71429,11.6601 -37.14286,16.374 l -17.14286,8.5708 -42.85714,-1.6707 C 407.1128,1088.2685 364.20977,1070.4782 290.81353,1009.7775 257.21465,981.99031 212.68114,932.07023 187.26302,893.702 168.24075,864.9882 118.76978,772.09363 111.1845,750.84486 101.49398,723.69866 78.883042,645.9124 75.057079,626.55914 c -1.708617,-8.64285 -4.968362,-33.07143 -7.24388,-54.28571 -2.96248,-27.61874 -5.899652,-42.04877 -10.343657,-50.81734 -5.705978,-11.2586 -5.838735,-12.65212 -1.646635,-17.28435 2.507846,-2.77111 10.317588,-21.84843 17.354984,-42.39397 C 89.95367,412.80117 123.0718,341.11646 160.72835,272.27343 193.35786,212.62074 281.7714,120.27537 328.9498,96.571014 c 8.5574,-4.299589 42.32529,-16.668326 75.03972,-27.486083 43.77848,-14.476317 63.52391,-19.668646 74.79617,-19.668646 8.42343,0 20.60008,-1.864568 27.05923,-4.143486 6.45914,-2.278917 22.37077,-5.575366 35.35922,-7.325443 12.98843,-1.750076 30.68675,-5.27944 39.3296,-7.84303 11.71626,-3.475207 27.34489,-4.646272 61.42858,-4.602896 60.66505,0.0772 75.47002,3.410909 175.71428,39.566395 41.56229,14.990429 51.64134,21.198577 78.93457,48.619285 22.53235,22.63758 28.06863,30.24562 40.72452,55.9642 8.05588,16.37074 21.79123,48.40783 30.52294,71.19355 8.73174,22.78571 21.07414,54.92857 27.42757,71.42857 12.6589,32.8754 25.2352,86.56071 25.2691,107.86766 0.011,7.45851 1.2722,21.2752 2.8008,30.70377 1.5286,9.42857 3.9702,37.71428 5.4258,62.85714 1.8201,31.43949 4.1474,49.22083 7.4528,56.94383 11.9823,27.99583 11.6615,31.81748 -13.8093,164.48474 -13.9685,72.75634 -28.88351,114.86746 -52.3602,147.83377 -22.82586,32.05243 -34.15106,42.78035 -52.27211,49.51535 -17.40055,6.4672 -48.50523,26.76445 -77.25935,50.41537 -10.21428,8.40145 -30.78571,21.56124 -45.71428,29.24394 -29.52457,15.1943 -51.42857,29.9 -51.42857,34.5277 0,5.6643 9.20051,6.3657 19.5454,1.4901 5.75003,-2.71 22.02603,-12.334 36.16888,-21.3866 34.66252,-22.187 55.30203,-33.01791 57.87146,-30.369 5.10714,5.2651 -61.91231,56.9629 -105.01431,81.0065 -12.55283,7.0023 -55.02498,20.58 -64.37606,20.58 -1.09749,0 0.12571,-3.2374 2.71846,-7.1943 4.20488,-6.4175 4.23805,-7.3769 0.30708,-8.8854 -9.72888,-3.7333 -52.47963,9.1143 -62.89877,18.9027 -7.68963,7.224 -57.17383,14.8015 -62.41737,9.558 z m -32.14374,-46.2924 c 12.70285,-6.0348 41.09611,-16.3704 63.09611,-22.9679 22,-6.5976 47.71429,-14.6407 57.14286,-17.8737 9.42857,-3.233 24.72717,-7.7346 33.99685,-10.0037 9.26972,-2.2691 22.12686,-7.7411 28.57143,-12.16 6.4446,-4.41889 27.32715,-16.4446 46.40566,-26.72374 34.50437,-18.59032 86.48386,-50.31786 96.02606,-58.61295 6.0454,-5.25531 6.45034,-9.17517 0.94783,-9.17517 -6.50692,0 -78.75929,35.55429 -95.94783,47.21443 -20.66975,14.02172 -76.35783,41.38152 -83.9942,41.26672 -5.601,-0.0843 -5.47355,-0.55872 1.89123,-7.04015 4.34337,-3.8224 16.86114,-12.18514 27.81725,-18.58385 27.04549,-15.79543 36.68326,-24.33149 32.395,-28.69198 -2.54203,-2.58482 -15.82534,4.14023 -56.72583,28.71909 -69.14768,41.5538 -120.19734,67.9273 -162.62545,84.0162 -37.62537,14.2677 -44.63897,18.8706 -39.0376,25.6198 4.23777,5.1062 13.65508,2.2827 50.04063,-15.0031 z M 635.09774,819.86123 c 31.26683,-26.79672 49.66095,-47.36286 45.80735,-51.21646 -4.94315,-4.94314 -17.72089,2.5592 -42.67657,25.05723 -27.58318,24.86674 -35.84858,34.67297 -33.77643,40.07291 2.848,7.42175 9.02165,4.6188 30.64565,-13.91368 z m -30.27828,-22.79492 c 31.29166,-21.48797 98.57143,-96.80745 98.57143,-110.3504 0,-7.619 -8.99786,-0.96605 -31.42857,23.23803 -36.10492,38.95937 -65.57018,68.41529 -79.7796,79.75429 -20.14798,16.07791 -9.27826,22.40708 12.63674,7.35808 z m -56.30812,-17.84577 c 26.85472,-5.46483 47.13818,-14.3888 70.3464,-30.94983 21.80112,-15.55697 50.24743,-43.2488 50.24743,-48.91474 0,-2.32397 1.19923,-4.2254 2.66495,-4.2254 3.37825,0 32.49505,-59.35788 38.892,-79.28571 2.64828,-8.25 5.92831,-15 7.28891,-15 9.05734,0 5.78811,48.57031 -7.66286,113.84491 -10.28797,49.92534 -11.81694,64.46163 -6.59725,62.72174 1.73642,-0.5788 4.795,-5.50737 6.79682,-10.95237 2.00183,-5.445 7.06389,-18.9 11.249,-29.9 10.42769,-27.40771 20.61006,-71.46725 24.43106,-105.71428 4.21852,-37.80963 0.63292,-51.64475 -15.57706,-60.1044 l -11.14945,-5.81869 -6.23855,-31.74197 c -7.96642,-40.53337 -20.80854,-83.97677 -34.4348,-116.48889 -8.68437,-20.72082 -14.03377,-28.89431 -28.14891,-43.00945 -9.58483,-9.5848 -24.38466,-20.89412 -32.88851,-25.13177 -14.01192,-6.98243 -18.44683,-7.70483 -47.30072,-7.70483 -70.31591,0 -115.6256,22.69674 -157.00223,78.64628 -26.79497,36.2322 -27.17954,37.50003 -27.17954,89.60457 0,57.37115 3.06577,79.24915 18.85811,134.57595 14.253,49.9338 23.28538,70.06951 43.86612,97.78983 16.49534,22.21768 29.56954,31.76588 51.56148,37.65582 20.24578,5.42226 21.82263,5.42566 47.9776,0.10315 z"
       id="path4775"
       inkscape:connector-curvature="0"
       transform="matrix(0.26458333,0,0,0.26458333,2.3788877,-1.3375747)" />
  </g>
</svg>
